<svg width="24" height="24" viewBox="0 0 24 24" fill="none" xmlns="http://www.w3.org/2000/svg">
<mask id="mask0_103_21" style="mask-type:alpha" maskUnits="userSpaceOnUse" x="0" y="0" width="24" height="24">
<rect width="24" height="24" fill="#D9D9D9"/>
</mask>
<g mask="url(#mask0_103_21)">
<path d="M4.125 21C3.80833 21 3.54167 20.8917 3.325 20.675C3.10833 20.4583 3 20.1917 3 19.875V16.5C3 16.2333 3.08333 16 3.25 15.8C3.41667 15.6 3.625 15.475 3.875 15.425L6.85 14.775C7.06667 14.725 7.28333 14.7375 7.5 14.8125C7.71667 14.8875 7.90833 15.0167 8.075 15.2L10.45 17.65C11.9167 16.85 13.2292 15.875 14.3875 14.725C15.5458 13.575 16.5917 12.225 17.525 10.675L15.025 8.15001C14.8917 8.01668 14.8042 7.85418 14.7625 7.66252C14.7208 7.47085 14.7167 7.25835 14.75 7.02502L15.425 3.87502C15.475 3.60835 15.5875 3.39585 15.7625 3.23752C15.9375 3.07918 16.1417 3.00002 16.375 3.00002H19.875C20.1917 3.00002 20.4583 3.10835 20.675 3.32502C20.8917 3.54168 21 3.80835 21 4.12502C21 6.15835 20.5 8.17918 19.5 10.1875C18.5 12.1958 17.2 14 15.6 15.6C14 17.2 12.1958 18.5 10.1875 19.5C8.17917 20.5 6.15833 21 4.125 21ZM18.275 9.30002C18.6917 8.30002 19 7.41252 19.2 6.63752C19.4 5.86251 19.5 5.15002 19.5 4.50002H16.825L16.25 7.25002L18.275 9.30002ZM9.05 18.375L7.075 16.3L4.5 16.825V19.5C5.25 19.4667 6.025 19.35 6.825 19.15C7.625 18.95 8.36667 18.6917 9.05 18.375Z" fill="#2684FC"/>
</g>
</svg>
