<svg width="22" height="18" viewBox="0 0 22 18" fill="none" xmlns="http://www.w3.org/2000/svg">
<path d="M21.9581 2.13056C21.1489 2.48531 20.2826 2.72937 19.3696 2.84006C20.3012 2.28112 21.0134 1.397 21.3531 0.34375C20.4792 0.8525 19.5126 1.221 18.4848 1.42931C17.6653 0.552062 16.4938 0 15.1938 0C12.7016 0 10.6817 2.01919 10.6817 4.50794C10.6817 4.86612 10.725 5.20987 10.7999 5.53575C7.051 5.36044 3.72763 3.55919 1.50494 0.838062C1.11444 1.50081 0.892375 2.27081 0.892375 3.10887C0.892375 4.67706 1.69056 6.05206 2.89712 6.86056C2.15944 6.83925 1.46506 6.63506 0.856625 6.29887V6.35319C0.856625 8.54012 2.41038 10.3634 4.47288 10.7786C4.09681 10.8783 3.69531 10.9361 3.28763 10.9361C2.99819 10.9361 2.72181 10.9079 2.44613 10.857C3.02638 12.6472 4.68738 13.9507 6.66738 13.9899C5.12806 15.1965 3.17694 15.9156 1.07456 15.9156C0.716375 15.9156 0.358875 15.8984 0 15.8551C2.00544 17.1339 4.3725 17.8819 6.92931 17.8819C15.2254 17.8819 19.7588 11.0103 19.7588 5.05931C19.7588 4.86956 19.7587 4.67637 19.7443 4.4825C20.6291 3.85206 21.395 3.05319 22 2.14775L21.9581 2.13056Z" fill="#00ACEE"/>
</svg>
